<?xml version="1.0" encoding="UTF-8" standalone="no"?>
<svg
   viewBox="0 0 512 512"
   version="1.1"
   id="svg239"
   sodipodi:docname="arrow.svg"
   width="512"
   height="512"
   inkscape:version="1.2.2 (732a01da63, 2022-12-09)"
   xml:space="preserve"
   xmlns:inkscape="http://www.inkscape.org/namespaces/inkscape"
   xmlns:sodipodi="http://sodipodi.sourceforge.net/DTD/sodipodi-0.dtd"
   xmlns="http://www.w3.org/2000/svg"
   xmlns:svg="http://www.w3.org/2000/svg"><defs
     id="defs243" /><sodipodi:namedview
     id="namedview241"
     pagecolor="#ffffff"
     bordercolor="#999999"
     borderopacity="1"
     inkscape:showpageshadow="0"
     inkscape:pageopacity="0"
     inkscape:pagecheckerboard="0"
     inkscape:deskcolor="#d1d1d1"
     showgrid="false"
     inkscape:zoom="1.28"
     inkscape:cx="80.078125"
     inkscape:cy="240.625"
     inkscape:window-width="1920"
     inkscape:window-height="1017"
     inkscape:window-x="-8"
     inkscape:window-y="-8"
     inkscape:window-maximized="1"
     inkscape:current-layer="svg239" /><rect
     style="display:none;fill:#f5f4ea;fill-opacity:1;stroke:#666666;stroke-width:40;stroke-linecap:round;stroke-miterlimit:0;stroke-dasharray:none"
     id="rect1242"
     width="448"
     height="448"
     x="32"
     y="32"
     rx="70.779175"
     ry="70.779175" /><!--! Font Awesome Pro 6.4.2 by @fontawesome - https://fontawesome.com License - https://fontawesome.com/license (Commercial License) Copyright 2023 Fonticons, Inc. --><path
     d="m 474.38513,284.46594 c 10.98701,-10.987 10.98701,-28.82953 0,-39.81652 L 361.87967,132.14395 c -10.98672,-10.98672 -28.82952,-10.98672 -39.81625,0 -10.987,10.987 -10.987,28.82952 0,39.81653 l 64.51486,64.51484 H 60.751751 c -15.557254,0 -28.126361,12.56885 -28.126361,28.12638 0,15.55754 12.569107,28.12636 28.126361,28.12636 H 386.57828 l -64.51486,64.51485 c -10.987,10.98672 -10.987,28.82952 0,39.81653 10.98673,10.98672 28.82953,10.98672 39.81625,0 L 474.38513,284.55398 Z"
     id="path130"
     style="fill:#666666;stroke-width:0.878949" /></svg>
