<?xml version="1.0" encoding="UTF-8" standalone="no"?>
<svg
   viewBox="0 0 448 512"
   version="1.1"
   id="svg4"
   sodipodi:docname="book-closed.svg"
   inkscape:version="1.2.2 (732a01da63, 2022-12-09)"
   xmlns:inkscape="http://www.inkscape.org/namespaces/inkscape"
   xmlns:sodipodi="http://sodipodi.sourceforge.net/DTD/sodipodi-0.dtd"
   xmlns="http://www.w3.org/2000/svg"
   xmlns:svg="http://www.w3.org/2000/svg">
  <defs
     id="defs8" />
  <sodipodi:namedview
     id="namedview6"
     pagecolor="#ffffff"
     bordercolor="#999999"
     borderopacity="1"
     inkscape:showpageshadow="0"
     inkscape:pageopacity="0"
     inkscape:pagecheckerboard="0"
     inkscape:deskcolor="#d1d1d1"
     showgrid="false"
     inkscape:zoom="1.1559538"
     inkscape:cx="169.55694"
     inkscape:cy="278.55784"
     inkscape:window-width="1920"
     inkscape:window-height="1017"
     inkscape:window-x="-8"
     inkscape:window-y="-8"
     inkscape:window-maximized="1"
     inkscape:current-layer="svg4" />
  <!--!Font Awesome Free 6.5.1 by @fontawesome - https://fontawesome.com License - https://fontawesome.com/license/free Copyright 2024 Fonticons, Inc.-->
  <path
     d="m 105.51595,21.627161 c -48.701601,0 -88.214221,39.51262 -88.214221,88.214219 v 294.04741 c 0,48.7016 39.51262,88.21422 88.214221,88.21422 h 264.64267 29.40474 c 16.2645,0 29.40474,-13.14024 29.40474,-29.40474 0,-16.2645 -13.14024,-29.40474 -29.40474,-29.40474 v -58.80948 c 16.2645,0 29.40474,-13.14025 29.40474,-29.40474 V 51.031902 c 0,-16.264498 -13.14024,-29.404741 -29.40474,-29.404741 h -29.40474 z m 0,352.856889 h 235.23793 v 58.80948 H 105.51595 c -16.264496,0 -29.40474,-13.14024 -29.40474,-29.40474 0,-16.2645 13.140244,-29.40474 29.40474,-29.40474 z m 29.40474,-220.53556 c 0,-8.0863 6.61607,-14.70237 14.70237,-14.70237 h 176.42845 c 8.0863,0 14.70237,6.61607 14.70237,14.70237 0,8.08631 -6.61607,14.70237 -14.70237,14.70237 H 149.62306 c -8.0863,0 -14.70237,-6.61606 -14.70237,-14.70237 z m 14.70237,44.10711 h 176.42845 c 8.0863,0 14.70237,6.61607 14.70237,14.70237 0,8.08631 -6.61607,14.70237 -14.70237,14.70237 H 149.62306 c -8.0863,0 -14.70237,-6.61606 -14.70237,-14.70237 0,-8.0863 6.61607,-14.70237 14.70237,-14.70237 z"
     id="path2"
     style="fill:#666666;stroke-width:0.918898" />
</svg>
