<?xml version="1.0" encoding="UTF-8" standalone="no"?>
<svg
   viewBox="0 0 512 512"
   version="1.1"
   id="svg239"
   sodipodi:docname="gear.svg"
   width="512"
   height="512"
   inkscape:version="1.2.2 (732a01da63, 2022-12-09)"
   xmlns:inkscape="http://www.inkscape.org/namespaces/inkscape"
   xmlns:sodipodi="http://sodipodi.sourceforge.net/DTD/sodipodi-0.dtd"
   xmlns="http://www.w3.org/2000/svg"
   xmlns:svg="http://www.w3.org/2000/svg">
  <defs
     id="defs243" />
  <sodipodi:namedview
     id="namedview241"
     pagecolor="#ffffff"
     bordercolor="#999999"
     borderopacity="1"
     inkscape:showpageshadow="0"
     inkscape:pageopacity="0"
     inkscape:pagecheckerboard="0"
     inkscape:deskcolor="#d1d1d1"
     showgrid="false"
     inkscape:zoom="1.28"
     inkscape:cx="201.17188"
     inkscape:cy="250"
     inkscape:window-width="1920"
     inkscape:window-height="1017"
     inkscape:window-x="-8"
     inkscape:window-y="-8"
     inkscape:window-maximized="1"
     inkscape:current-layer="svg239" />
  <rect
     style="display:none;fill:#f5f4ea;fill-opacity:1;stroke:#666666;stroke-width:40;stroke-linecap:round;stroke-miterlimit:0;stroke-dasharray:none"
     id="rect1242"
     width="448"
     height="448"
     x="32"
     y="32"
     rx="70.779175"
     ry="70.779175" />
  <!--! Font Awesome Pro 6.4.2 by @fontawesome - https://fontawesome.com License - https://fontawesome.com/license (Commercial License) Copyright 2023 Fonticons, Inc. -->
  <path
     d="m 453.89116,182.09238 c 2.65243,7.2113 0.41444,15.2515 -5.30487,20.39059 l -35.89076,32.6581 c 0.91177,6.87975 1.40911,13.92528 1.40911,21.0537 0,7.12842 -0.49734,14.17395 -1.40911,21.0537 l 35.89076,32.6581 c 5.71931,5.13909 7.9573,13.17929 5.30487,20.39059 -3.6471,9.86374 -8.0402,19.31304 -13.0964,28.43079 l -3.89576,6.71397 c -5.47065,9.11774 -11.60441,17.73816 -18.31838,25.86124 -4.89043,5.96798 -13.01351,7.9573 -20.3077,5.63642 L 352.10398,382.2683 c -11.10707,8.53753 -23.37458,15.66594 -36.47098,21.0537 l -10.36107,47.32938 c -1.65777,7.54286 -7.45997,13.51084 -15.08572,14.75417 -11.43863,1.90644 -23.20881,2.9011 -35.22765,2.9011 -12.01885,0 -23.78902,-0.99466 -35.22765,-2.9011 -7.62575,-1.24333 -13.42795,-7.21131 -15.08572,-14.75417 L 194.28412,403.322 c -13.0964,-5.38776 -25.36391,-12.51617 -36.47098,-21.0537 l -46.08605,14.75417 c -7.2942,2.32088 -15.41728,0.24867 -20.307706,-5.63642 -6.713975,-8.12308 -12.847731,-16.7435 -18.318377,-25.86124 l -3.895763,-6.71398 c -5.056204,-9.11774 -9.449299,-18.56704 -13.096396,-28.43078 -2.652435,-7.21131 -0.414443,-15.2515 5.304869,-20.39059 l 35.890756,-32.6581 c -0.911774,-6.96264 -1.409106,-14.00817 -1.409106,-21.13659 0,-7.12842 0.497332,-14.17395 1.409106,-21.0537 l -35.890756,-32.6581 c -5.719312,-5.13909 -7.957304,-13.17929 -5.304869,-20.39059 3.647097,-9.86374 8.040192,-19.31304 13.096396,-28.43079 l 3.895763,-6.71397 c 5.470646,-9.11775 11.604402,-17.73816 18.318377,-25.86124 4.890426,-5.96798 13.013506,-7.9573 20.307706,-5.63642 l 46.16894,14.67128 c 11.10707,-8.53753 23.37458,-15.66594 36.47098,-21.0537 L 204.72808,61.738157 C 206.38585,54.195296 212.18805,48.227318 219.8138,46.983989 231.25242,44.994663 243.0226,44 255.04145,44 c 12.01884,0 23.78902,0.994663 35.22764,2.9011 7.62575,1.243329 13.42795,7.211307 15.08573,14.754168 l 10.36107,47.329382 c 13.0964,5.38776 25.36391,12.51617 36.47098,21.0537 l 46.16894,-14.67128 c 7.29419,-2.32088 15.41727,-0.24867 20.3077,5.63642 6.71397,8.12308 12.84773,16.7435 18.31837,25.86124 l 3.89577,6.71398 c 5.0562,9.11774 9.4493,18.56704 13.09639,28.43078 z M 255.04145,322.50564 a 66.31087,66.31087 0 1 0 0,-132.62174 66.31087,66.31087 0 1 0 0,132.62174 z"
     id="path129"
     style="stroke-width:0.828886;fill:#666666;fill-opacity:1" />
</svg>
