<?xml version="1.0" encoding="UTF-8" standalone="no"?>
<svg
   viewBox="0 0 512 512"
   version="1.1"
   id="svg131"
   sodipodi:docname="image.svg"
   inkscape:version="1.2.2 (732a01da63, 2022-12-09)"
   xmlns:inkscape="http://www.inkscape.org/namespaces/inkscape"
   xmlns:sodipodi="http://sodipodi.sourceforge.net/DTD/sodipodi-0.dtd"
   xmlns="http://www.w3.org/2000/svg"
   xmlns:svg="http://www.w3.org/2000/svg">
  <defs
     id="defs135" />
  <sodipodi:namedview
     id="namedview133"
     pagecolor="#ffffff"
     bordercolor="#999999"
     borderopacity="1"
     inkscape:showpageshadow="0"
     inkscape:pageopacity="0"
     inkscape:pagecheckerboard="0"
     inkscape:deskcolor="#d1d1d1"
     showgrid="false"
     inkscape:zoom="1.1559539"
     inkscape:cx="153.55284"
     inkscape:cy="243.95437"
     inkscape:window-width="1920"
     inkscape:window-height="1017"
     inkscape:window-x="-8"
     inkscape:window-y="-8"
     inkscape:window-maximized="1"
     inkscape:current-layer="svg131" />
  <!--! Font Awesome Pro 6.4.2 by @fontawesome - https://fontawesome.com License - https://fontawesome.com/license (Commercial License) Copyright 2023 Fonticons, Inc. -->
  <rect
     style="display:inline;fill:#f5f4ea;fill-opacity:1;stroke:#666666;stroke-width:40;stroke-linecap:round;stroke-miterlimit:0;stroke-dasharray:none"
     id="rect1242"
     width="448"
     height="448"
     x="36.391014"
     y="32.065582"
     rx="70.779175"
     ry="70.779175" />
  <path
     id="rect543"
     style="display:inline;fill:#666666;stroke:#666666;stroke-width:40;stroke-linecap:round;stroke-miterlimit:0"
     d="m 150.38402,150.24541 a 48.974761,50.039134 0 1 0 0,100.07813 48.974761,50.039134 0 1 0 0,-100.07813 z m 163.25,100.07813 c -7.55027,0 -14.6933,3.54467 -19.38671,9.69531 l -84.68555,111.96289 -31.11914,-44.51562 c -4.59139,-6.56762 -11.93809,-10.42383 -19.89649,-10.42383 -7.95839,0 -15.30314,3.85742 -19.89453,10.5293 l -81.624996,116.75781 -2.525391,3.55469 v 0.23047 H 457.63012 V 424.78448 L 333.01879,260.01885 c -4.59138,-6.15064 -11.83451,-9.69531 -19.38477,-9.69531 z" />
</svg>
