<?xml version="1.0" encoding="UTF-8" standalone="no"?>
<svg
   viewBox="0 0 512 512"
   version="1.1"
   id="svg239"
   sodipodi:docname="palette.svg"
   width="512"
   height="512"
   inkscape:version="1.2.2 (732a01da63, 2022-12-09)"
   xml:space="preserve"
   xmlns:inkscape="http://www.inkscape.org/namespaces/inkscape"
   xmlns:sodipodi="http://sodipodi.sourceforge.net/DTD/sodipodi-0.dtd"
   xmlns="http://www.w3.org/2000/svg"
   xmlns:svg="http://www.w3.org/2000/svg"><defs
     id="defs243" /><sodipodi:namedview
     id="namedview241"
     pagecolor="#ffffff"
     bordercolor="#999999"
     borderopacity="1"
     inkscape:showpageshadow="0"
     inkscape:pageopacity="0"
     inkscape:pagecheckerboard="0"
     inkscape:deskcolor="#d1d1d1"
     showgrid="false"
     inkscape:zoom="1.28"
     inkscape:cx="174.60938"
     inkscape:cy="250"
     inkscape:window-width="1920"
     inkscape:window-height="1017"
     inkscape:window-x="-8"
     inkscape:window-y="-8"
     inkscape:window-maximized="1"
     inkscape:current-layer="svg239" /><rect
     style="display:none;fill:#f5f4ea;fill-opacity:1;stroke:#666666;stroke-width:40;stroke-linecap:round;stroke-miterlimit:0;stroke-dasharray:none"
     id="rect1242"
     width="448"
     height="448"
     x="32"
     y="32"
     rx="70.779175"
     ry="70.779175" /><!--! Font Awesome Pro 6.4.2 by @fontawesome - https://fontawesome.com License - https://fontawesome.com/license (Commercial License) Copyright 2023 Fonticons, Inc. --><path
     opacity="1"
     fill="#1e3050"
     d="m 455,260.0055 c 0,0.7025 0,1.4075 0,2.11 -0.3125,28.51575 -26.25,47.89075 -54.76563,47.89075 H 323.75 c -20.70313,0 -37.5,16.79675 -37.5,37.5 0,2.65625 0.3125,5.23425 0.78125,7.73425 1.6405,7.96875 5.07812,15.625 8.4375,23.3595 4.76562,10.78125 9.45312,21.48425 9.45312,32.8125 0,24.84375 -16.87499,47.42175 -41.71875,48.4375 -2.73437,0.075 -5.46875,0.15 -8.28125,0.15 C 144.53125,460 55,370.46875 55,260 55,149.53125 144.53125,60 255,60 c 110.46875,0 200,89.53125 200,200 z m -300,25 a 25,25 0 1 0 -50,0 25,25 0 1 0 50,0 z m 0,-75 a 25,25 0 1 0 0,-50 25,25 0 1 0 0,50 z m 125,-75 a 25,25 0 1 0 -50,0 25,25 0 1 0 50,0 z m 75,75 a 25,25 0 1 0 0,-50 25,25 0 1 0 0,50 z"
     id="path357"
     style="stroke-width:0.78125;fill:#666666;fill-opacity:1" /></svg>
