<?xml version="1.0" encoding="UTF-8" standalone="no"?>
<svg
   viewBox="0 0 512 512"
   version="1.1"
   id="svg4"
   sodipodi:docname="shutdown.svg"
   inkscape:version="1.2.2 (732a01da63, 2022-12-09)"
   xmlns:inkscape="http://www.inkscape.org/namespaces/inkscape"
   xmlns:sodipodi="http://sodipodi.sourceforge.net/DTD/sodipodi-0.dtd"
   xmlns="http://www.w3.org/2000/svg"
   xmlns:svg="http://www.w3.org/2000/svg">
  <defs
     id="defs8" />
  <sodipodi:namedview
     id="namedview6"
     pagecolor="#ffffff"
     bordercolor="#999999"
     borderopacity="1"
     inkscape:showpageshadow="0"
     inkscape:pageopacity="0"
     inkscape:pagecheckerboard="0"
     inkscape:deskcolor="#d1d1d1"
     showgrid="false"
     inkscape:zoom="1.1559539"
     inkscape:cx="114.19141"
     inkscape:cy="225.78756"
     inkscape:window-width="1920"
     inkscape:window-height="1017"
     inkscape:window-x="-8"
     inkscape:window-y="-8"
     inkscape:window-maximized="1"
     inkscape:current-layer="svg4" />
  <!--!Font Awesome Free 6.5.1 by @fontawesome - https://fontawesome.com License - https://fontawesome.com/license/free Copyright 2024 Fonticons, Inc.-->
  <path
     d="m 286.57156,52.492247 c 0,-16.59375 -13.40625,-30 -30,-30 -16.59375,0 -30,13.40625 -30,30 V 262.49224 c 0,16.59375 13.40625,30 30,30 16.59375,0 30,-13.40625 30,-30 z M 151.10281,135.55474 c 12.75,-10.59375 14.4375,-29.53125 3.84375,-42.281243 -10.59375,-12.75 -29.53125,-14.4375 -42.28125,-3.84375 C 63.165305,130.67974 31.571555,192.92974 31.571555,262.49224 c 0,124.21875 100.781255,225 225.000005,225 124.21875,0 225,-100.78125 225,-225 0,-69.5625 -31.6875,-131.8125 -81.1875,-173.062493 -12.75,-10.59375 -31.6875,-8.8125 -42.28125,3.84375 -10.59375,12.656243 -8.8125,31.687493 3.84375,42.281243 36.46875,30.28125 59.53125,75.9375 59.53125,126.9375 0,91.125 -73.875,165 -165,165 -91.125,0 -165.000005,-73.875 -165.000005,-165 0,-51 23.156255,-96.65625 59.531255,-126.9375 z"
     id="path2"
     style="fill:#666666;stroke-width:0.9375" />
</svg>
